# xmcd CD database file
#
# Track frame offsets:
#	150
#	37204
#	66803
#	105049
#	138534
#	161999
#	202675
#	223371
#	251086
#	270197
#	290820
#	324752
#
# Disc length: 4659 seconds
#
# Revision: 0
# Processed by: cddbd v1.5.1PL0 Copyright (c) Steve Scherf et al.
# Submitted via: CDex 1.51
#
DISCID=b412310c
DTITLE=Ben Harper - The Soul of a man
DYEAR=1900
DGENRE=Blues
TTITLE0=She's only happy in the sun (acoustic)
TTITLE1=Excuse me Mister
TTITLE2=Brown eyed Blues
TTITLE3=Temporary Remedy
TTITLE4=Please me like you want to
TTITLE5=Woman in you
TTITLE6=Diamonds on the inside
TTITLE7=Power of the Gospel (acoustic)
TTITLE8=Walk away (acoustic)
TTITLE9=When it's good (acoustic)
TTITLE10=Don't take that attitude to your grave
TTITLE11=When she believes
EXTD=
EXTT0=
EXTT1=
EXTT2=
EXTT3=
EXTT4=
EXTT5=
EXTT6=
EXTT7=
EXTT8=
EXTT9=
EXTT10=
EXTT11=
PLAYORDER=
